# xmcd
# 
# Track frame offsets:
#     150
#     10948
#     29822
#     43735
#     61547
#     80079
#     100675
#     117865
#     133732
#     152136
#     167924
#     183439
#     201086
#     214261
#     230181
#     247173
#     261527
#     276714
#     292917
#     309402
#     322733
#     342227
# 
# Disc length: 4782
# 
# Revision: 1
# Processed by: cddbd v1.5.2PL0 Copyright (c) Steve Scherf et al.
# Submitted via: fre:ac v1.0.31
# 
DISCID=5112ac16
DTITLE=Petra Durst-Benning - Solange die Welt noch schläft
DYEAR=0
DGENRE=Unbekanntes Genre
TTITLE0=Solange die Welt noch schläft CD 2
TTITLE1=Solange die Welt noch schläft CD 2
TTITLE2=Solange die Welt noch schläft CD 2
TTITLE3=Solange die Welt noch schläft CD 2
TTITLE4=Solange die Welt noch schläft CD 2
TTITLE5=Solange die Welt noch schläft CD 2
TTITLE6=Solange die Welt noch schläft CD 2
TTITLE7=Solange die Welt noch schläft CD 2
TTITLE8=Solange die Welt noch schläft CD 2
TTITLE9=Solange die Welt noch schläft CD 2
TTITLE10=Solange die Welt noch schläft CD 2
TTITLE11=Solange die Welt noch schläft CD 2
TTITLE12=Solange die Welt noch schläft CD 2
TTITLE13=Solange die Welt noch schläft CD 2
TTITLE14=Solange die Welt noch schläft CD 2
TTITLE15=Solange die Welt noch schläft CD 2
TTITLE16=Solange die Welt noch schläft CD 2
TTITLE17=Solange die Welt noch schläft CD 2
TTITLE18=Solange die Welt noch schläft CD 2
TTITLE19=Solange die Welt noch schläft CD 2
TTITLE20=Solange die Welt noch schläft CD 2
TTITLE21=Solange die Welt noch schläft CD 2
EXTD=
EXTT0=
EXTT1=
EXTT2=
EXTT3=
EXTT4=
EXTT5=
EXTT6=
EXTT7=
EXTT8=
EXTT9=
EXTT10=
EXTT11=
EXTT12=
EXTT13=
EXTT14=
EXTT15=
EXTT16=
EXTT17=
EXTT18=
EXTT19=
EXTT20=
EXTT21=
PLAYORDER=
